<mxfile host="app.diagrams.net" agent="Mozilla/5.0 (X11; Ubuntu; Linux x86_64; rv:128.0) Gecko/20100101 Firefox/128.0" version="24.7.7">
  <diagram name="employee permission request" id="IkzDn-hzaN0rCD2kMlex">
    <mxGraphModel dx="979" dy="616" grid="1" gridSize="10" guides="1" tooltips="1" connect="1" arrows="1" fold="1" page="1" pageScale="1" pageWidth="850" pageHeight="1100" math="0" shadow="0">
      <root>
        <mxCell id="0" />
        <mxCell id="1" parent="0" />
        <mxCell id="0EZDxdcCSDM1pmTRQqnp-1" value="EMPLOYEE PERMISSION REQUEST" style="swimlane;childLayout=stackLayout;resizeParent=1;resizeParentMax=0;horizontal=1;startSize=20;horizontalStack=0;html=1;swimlaneFillColor=#FFFFFF;fillColor=#66FF66;strokeColor=#82b366;" parent="1" vertex="1">
          <mxGeometry x="50" y="47" width="750" height="450" as="geometry" />
        </mxCell>
        <mxCell id="0EZDxdcCSDM1pmTRQqnp-2" value="EMPLOYEE" style="swimlane;startSize=20;horizontal=0;html=1;fillColor=#d5e8d4;strokeColor=#82b366;swimlaneFillColor=#FFFFFF;" parent="0EZDxdcCSDM1pmTRQqnp-1" vertex="1">
          <mxGeometry y="20" width="750" height="120" as="geometry" />
        </mxCell>
        <mxCell id="0EZDxdcCSDM1pmTRQqnp-5" value="Start" style="ellipse;whiteSpace=wrap;html=1;" parent="0EZDxdcCSDM1pmTRQqnp-2" vertex="1">
          <mxGeometry x="33" y="34" width="70" height="30" as="geometry" />
        </mxCell>
        <mxCell id="0EZDxdcCSDM1pmTRQqnp-6" value="1. Fill Request Form" style="whiteSpace=wrap;html=1;" parent="0EZDxdcCSDM1pmTRQqnp-2" vertex="1">
          <mxGeometry x="155" y="30" width="125" height="40" as="geometry" />
        </mxCell>
        <mxCell id="0EZDxdcCSDM1pmTRQqnp-10" value="End" style="ellipse;whiteSpace=wrap;html=1;" parent="0EZDxdcCSDM1pmTRQqnp-2" vertex="1">
          <mxGeometry x="670" y="37" width="70" height="25" as="geometry" />
        </mxCell>
        <mxCell id="0EZDxdcCSDM1pmTRQqnp-11" value="" style="endArrow=classic;html=1;rounded=0;exitX=1;exitY=0.5;exitDx=0;exitDy=0;entryX=0;entryY=0.5;entryDx=0;entryDy=0;" parent="0EZDxdcCSDM1pmTRQqnp-2" source="0EZDxdcCSDM1pmTRQqnp-5" edge="1">
          <mxGeometry width="50" height="50" relative="1" as="geometry">
            <mxPoint x="105.00000000000227" y="49.66" as="sourcePoint" />
            <mxPoint x="155" y="49.66" as="targetPoint" />
          </mxGeometry>
        </mxCell>
        <mxCell id="k6OdDDGUzln-NUkdbTDU-2" value="2. Submit Request" style="whiteSpace=wrap;html=1;" vertex="1" parent="0EZDxdcCSDM1pmTRQqnp-2">
          <mxGeometry x="330" y="30" width="110" height="40" as="geometry" />
        </mxCell>
        <mxCell id="k6OdDDGUzln-NUkdbTDU-24" value="7. Get Feedback" style="whiteSpace=wrap;html=1;" vertex="1" parent="0EZDxdcCSDM1pmTRQqnp-2">
          <mxGeometry x="490" y="30" width="110" height="40" as="geometry" />
        </mxCell>
        <mxCell id="k6OdDDGUzln-NUkdbTDU-38" value="" style="endArrow=classic;html=1;rounded=0;exitX=1;exitY=0.5;exitDx=0;exitDy=0;entryX=0;entryY=0.5;entryDx=0;entryDy=0;" edge="1" parent="0EZDxdcCSDM1pmTRQqnp-2" target="0EZDxdcCSDM1pmTRQqnp-10">
          <mxGeometry width="50" height="50" relative="1" as="geometry">
            <mxPoint x="600" y="48.66" as="sourcePoint" />
            <mxPoint x="652" y="49.31999999999999" as="targetPoint" />
          </mxGeometry>
        </mxCell>
        <mxCell id="k6OdDDGUzln-NUkdbTDU-41" value="" style="endArrow=classic;html=1;rounded=0;exitX=1;exitY=0.5;exitDx=0;exitDy=0;entryX=0;entryY=0.5;entryDx=0;entryDy=0;" edge="1" parent="0EZDxdcCSDM1pmTRQqnp-2">
          <mxGeometry width="50" height="50" relative="1" as="geometry">
            <mxPoint x="280" y="48.66" as="sourcePoint" />
            <mxPoint x="332" y="49.31999999999999" as="targetPoint" />
          </mxGeometry>
        </mxCell>
        <mxCell id="0EZDxdcCSDM1pmTRQqnp-3" value="HEAD OF DPT./UNIT" style="swimlane;startSize=20;horizontal=0;html=1;fillColor=#d5e8d4;strokeColor=#82b366;" parent="0EZDxdcCSDM1pmTRQqnp-1" vertex="1">
          <mxGeometry y="140" width="750" height="150" as="geometry" />
        </mxCell>
        <mxCell id="0EZDxdcCSDM1pmTRQqnp-9" value="&lt;div&gt;3. Approve?&lt;br&gt;&lt;/div&gt;" style="rhombus;whiteSpace=wrap;html=1;" parent="0EZDxdcCSDM1pmTRQqnp-3" vertex="1">
          <mxGeometry x="345" y="25" width="80" height="80" as="geometry" />
        </mxCell>
        <mxCell id="k6OdDDGUzln-NUkdbTDU-5" value="" style="endArrow=classic;html=1;rounded=0;entryX=0.5;entryY=0;entryDx=0;entryDy=0;exitX=0.5;exitY=1;exitDx=0;exitDy=0;" edge="1" parent="0EZDxdcCSDM1pmTRQqnp-3" source="0EZDxdcCSDM1pmTRQqnp-9">
          <mxGeometry width="50" height="50" relative="1" as="geometry">
            <mxPoint x="385" y="119" as="sourcePoint" />
            <mxPoint x="385" y="171" as="targetPoint" />
          </mxGeometry>
        </mxCell>
        <mxCell id="k6OdDDGUzln-NUkdbTDU-6" value="YES" style="edgeLabel;html=1;align=center;verticalAlign=middle;resizable=0;points=[];" vertex="1" connectable="0" parent="k6OdDDGUzln-NUkdbTDU-5">
          <mxGeometry x="-0.183" relative="1" as="geometry">
            <mxPoint as="offset" />
          </mxGeometry>
        </mxCell>
        <mxCell id="k6OdDDGUzln-NUkdbTDU-10" value="&lt;div&gt;4. Modify?&lt;br&gt;&lt;/div&gt;" style="rhombus;whiteSpace=wrap;html=1;" vertex="1" parent="0EZDxdcCSDM1pmTRQqnp-3">
          <mxGeometry x="470" y="37" width="80" height="57" as="geometry" />
        </mxCell>
        <mxCell id="k6OdDDGUzln-NUkdbTDU-11" value="" style="edgeStyle=orthogonalEdgeStyle;rounded=0;orthogonalLoop=1;jettySize=auto;html=1;" edge="1" parent="0EZDxdcCSDM1pmTRQqnp-3" source="0EZDxdcCSDM1pmTRQqnp-9" target="k6OdDDGUzln-NUkdbTDU-10">
          <mxGeometry relative="1" as="geometry">
            <mxPoint x="600" y="262" as="targetPoint" />
            <mxPoint x="465" y="262" as="sourcePoint" />
          </mxGeometry>
        </mxCell>
        <mxCell id="k6OdDDGUzln-NUkdbTDU-12" value="NO" style="edgeLabel;html=1;align=center;verticalAlign=middle;resizable=0;points=[];" vertex="1" connectable="0" parent="k6OdDDGUzln-NUkdbTDU-11">
          <mxGeometry x="-0.3352" y="-1" relative="1" as="geometry">
            <mxPoint as="offset" />
          </mxGeometry>
        </mxCell>
        <mxCell id="k6OdDDGUzln-NUkdbTDU-18" value="" style="endArrow=classic;html=1;rounded=0;exitX=0.5;exitY=0;exitDx=0;exitDy=0;" edge="1" parent="0EZDxdcCSDM1pmTRQqnp-3" source="k6OdDDGUzln-NUkdbTDU-10">
          <mxGeometry width="50" height="50" relative="1" as="geometry">
            <mxPoint x="510" y="20" as="sourcePoint" />
            <mxPoint x="190" y="-50" as="targetPoint" />
            <Array as="points">
              <mxPoint x="510" y="10" />
              <mxPoint x="190" y="10" />
            </Array>
          </mxGeometry>
        </mxCell>
        <mxCell id="k6OdDDGUzln-NUkdbTDU-19" value="YES" style="edgeLabel;html=1;align=center;verticalAlign=middle;resizable=0;points=[];" vertex="1" connectable="0" parent="k6OdDDGUzln-NUkdbTDU-18">
          <mxGeometry x="-0.9485" relative="1" as="geometry">
            <mxPoint as="offset" />
          </mxGeometry>
        </mxCell>
        <mxCell id="k6OdDDGUzln-NUkdbTDU-3" value="" style="endArrow=classic;html=1;rounded=0;entryX=0.5;entryY=0;entryDx=0;entryDy=0;exitX=0.5;exitY=1;exitDx=0;exitDy=0;" edge="1" parent="0EZDxdcCSDM1pmTRQqnp-1" source="k6OdDDGUzln-NUkdbTDU-2" target="0EZDxdcCSDM1pmTRQqnp-9">
          <mxGeometry width="50" height="50" relative="1" as="geometry">
            <mxPoint x="385" y="72" as="sourcePoint" />
            <mxPoint x="385" y="132" as="targetPoint" />
          </mxGeometry>
        </mxCell>
        <mxCell id="k6OdDDGUzln-NUkdbTDU-21" value="" style="endArrow=classic;html=1;rounded=0;exitX=1;exitY=0.5;exitDx=0;exitDy=0;entryX=0.5;entryY=1;entryDx=0;entryDy=0;" edge="1" parent="0EZDxdcCSDM1pmTRQqnp-1" source="k6OdDDGUzln-NUkdbTDU-10" target="k6OdDDGUzln-NUkdbTDU-24">
          <mxGeometry width="50" height="50" relative="1" as="geometry">
            <mxPoint x="550" y="200" as="sourcePoint" />
            <mxPoint x="600" y="150" as="targetPoint" />
            <Array as="points">
              <mxPoint x="600" y="206" />
              <mxPoint x="600" y="130" />
              <mxPoint x="545" y="130" />
            </Array>
          </mxGeometry>
        </mxCell>
        <mxCell id="k6OdDDGUzln-NUkdbTDU-22" value="NO" style="edgeLabel;html=1;align=center;verticalAlign=middle;resizable=0;points=[];" vertex="1" connectable="0" parent="k6OdDDGUzln-NUkdbTDU-21">
          <mxGeometry x="-0.6488" relative="1" as="geometry">
            <mxPoint as="offset" />
          </mxGeometry>
        </mxCell>
        <mxCell id="k6OdDDGUzln-NUkdbTDU-1" value="DHRAM" style="swimlane;startSize=20;horizontal=0;html=1;fillColor=#d5e8d4;strokeColor=#82b366;" vertex="1" parent="0EZDxdcCSDM1pmTRQqnp-1">
          <mxGeometry y="290" width="750" height="160" as="geometry" />
        </mxCell>
        <mxCell id="k6OdDDGUzln-NUkdbTDU-20" value="&lt;div&gt;5. Approve?&lt;br&gt;&lt;/div&gt;" style="rhombus;whiteSpace=wrap;html=1;" vertex="1" parent="k6OdDDGUzln-NUkdbTDU-1">
          <mxGeometry x="345" y="20" width="80" height="80" as="geometry" />
        </mxCell>
        <mxCell id="k6OdDDGUzln-NUkdbTDU-34" value="6. Grant Permission" style="whiteSpace=wrap;html=1;" vertex="1" parent="k6OdDDGUzln-NUkdbTDU-1">
          <mxGeometry x="501" y="42" width="110" height="40" as="geometry" />
        </mxCell>
        <mxCell id="k6OdDDGUzln-NUkdbTDU-25" value="" style="endArrow=classic;html=1;rounded=0;exitX=1;exitY=0.5;exitDx=0;exitDy=0;" edge="1" parent="k6OdDDGUzln-NUkdbTDU-1" source="k6OdDDGUzln-NUkdbTDU-20" target="k6OdDDGUzln-NUkdbTDU-34">
          <mxGeometry width="50" height="50" relative="1" as="geometry">
            <mxPoint x="390" as="sourcePoint" />
            <mxPoint x="500" y="60" as="targetPoint" />
          </mxGeometry>
        </mxCell>
        <mxCell id="k6OdDDGUzln-NUkdbTDU-26" value="YES" style="edgeLabel;html=1;align=center;verticalAlign=middle;resizable=0;points=[];" vertex="1" connectable="0" parent="k6OdDDGUzln-NUkdbTDU-25">
          <mxGeometry x="-0.6551" y="-2" relative="1" as="geometry">
            <mxPoint as="offset" />
          </mxGeometry>
        </mxCell>
        <mxCell id="k6OdDDGUzln-NUkdbTDU-36" value="" style="endArrow=classic;html=1;rounded=0;exitX=0.5;exitY=1;exitDx=0;exitDy=0;" edge="1" parent="0EZDxdcCSDM1pmTRQqnp-1">
          <mxGeometry width="50" height="50" relative="1" as="geometry">
            <mxPoint x="385.0000000000002" y="387" as="sourcePoint" />
            <mxPoint x="590" y="90" as="targetPoint" />
            <Array as="points">
              <mxPoint x="385" y="430" />
              <mxPoint x="670" y="430" />
              <mxPoint x="670" y="110" />
              <mxPoint x="590" y="110" />
            </Array>
          </mxGeometry>
        </mxCell>
        <mxCell id="k6OdDDGUzln-NUkdbTDU-37" value="NO" style="edgeLabel;html=1;align=center;verticalAlign=middle;resizable=0;points=[];" vertex="1" connectable="0" parent="k6OdDDGUzln-NUkdbTDU-36">
          <mxGeometry x="-0.9217" relative="1" as="geometry">
            <mxPoint as="offset" />
          </mxGeometry>
        </mxCell>
        <mxCell id="k6OdDDGUzln-NUkdbTDU-35" value="" style="endArrow=classic;html=1;rounded=0;exitX=1;exitY=0.5;exitDx=0;exitDy=0;entryX=0.727;entryY=1.075;entryDx=0;entryDy=0;entryPerimeter=0;" edge="1" parent="0EZDxdcCSDM1pmTRQqnp-1">
          <mxGeometry width="50" height="50" relative="1" as="geometry">
            <mxPoint x="611" y="348" as="sourcePoint" />
            <mxPoint x="569.9699999999998" y="88.99999999999989" as="targetPoint" />
            <Array as="points">
              <mxPoint x="640" y="348" />
              <mxPoint x="640" y="119" />
              <mxPoint x="570" y="119" />
            </Array>
          </mxGeometry>
        </mxCell>
      </root>
    </mxGraphModel>
  </diagram>
</mxfile>
